<svg id="Layer_1" data-name="Layer 1" xmlns="http://www.w3.org/2000/svg" xmlns:xlink="http://www.w3.org/1999/xlink" viewBox="0 0 675.44 675.43"><defs><style>.cls-1{fill:url(#linear-gradient);}.cls-2,.cls-3{fill:#fff;}.cls-3{fill-rule:evenodd;}</style><linearGradient id="linear-gradient" x2="675.43" y2="675.43" gradientUnits="userSpaceOnUse"><stop offset="0" stop-color="#7c4593"/><stop offset="1" stop-color="#da2430"/></linearGradient></defs><title>Animation-D6</title><rect class="cls-1" width="675.44" height="675.43"/><path class="cls-2" d="M317.15,223.55a26.88,26.88,0,0,0-5.8-5.18,43.23,43.23,0,0,0-7.41-3.92l-12.45-5.18c-1.87-.74-3.69-1.52-5.46-2.31a26,26,0,0,1-4.69-2.66,12.11,12.11,0,0,1-3.22-3.36,8.33,8.33,0,0,1-1.19-4.55,9.26,9.26,0,0,1,3.92-7.91q3.91-2.87,10.49-2.87a26,26,0,0,1,10.63,2.1,40.75,40.75,0,0,1,9.23,5.73l8.26-10.35a39.7,39.7,0,0,0-12.73-8.46,39,39,0,0,0-15.39-3.15,37.71,37.71,0,0,0-12.38,2,29.56,29.56,0,0,0-9.72,5.45,25.82,25.82,0,0,0-6.37,8.19,22.69,22.69,0,0,0-2.31,10.14,22.8,22.8,0,0,0,5.88,15.81,29.18,29.18,0,0,0,5.95,5,43.24,43.24,0,0,0,6.64,3.5L291.61,227q3.08,1.26,5.67,2.52a24.89,24.89,0,0,1,4.48,2.73,10.81,10.81,0,0,1,2.94,3.42,10,10,0,0,1,1,4.76,10.35,10.35,0,0,1-4.06,8.54q-4.06,3.22-11.89,3.22a30.09,30.09,0,0,1-12.59-2.87A40.81,40.81,0,0,1,266,241.88l-9.51,11.05a47.34,47.34,0,0,0,33,13.43,41,41,0,0,0,13.78-2.17,32,32,0,0,0,10.35-5.88,25.21,25.21,0,0,0,6.51-8.6,25,25,0,0,0,2.24-10.49,25.89,25.89,0,0,0-1.4-8.89,22.43,22.43,0,0,0-3.85-6.78"/><path class="cls-2" d="M317.7,365.37a27,27,0,0,0-5.8-5.17,43.22,43.22,0,0,0-7.41-3.92L292,351.1q-2.81-1.12-5.46-2.31a25.92,25.92,0,0,1-4.69-2.66,12.08,12.08,0,0,1-3.22-3.36,8.35,8.35,0,0,1-1.19-4.55,9.26,9.26,0,0,1,3.92-7.9q3.91-2.87,10.5-2.87a26,26,0,0,1,10.63,2.1,40.76,40.76,0,0,1,9.23,5.73L320,324.94a39.72,39.72,0,0,0-12.73-8.46,39,39,0,0,0-15.39-3.15,37.73,37.73,0,0,0-12.38,2,29.56,29.56,0,0,0-9.73,5.46,25.84,25.84,0,0,0-6.37,8.19,22.65,22.65,0,0,0-2.31,10.14A22.81,22.81,0,0,0,267,354.88a29.2,29.2,0,0,0,5.94,5,43.45,43.45,0,0,0,6.64,3.5l12.59,5.45q3.08,1.26,5.67,2.52a25,25,0,0,1,4.48,2.73,10.83,10.83,0,0,1,2.94,3.42,10,10,0,0,1,1,4.76,10.36,10.36,0,0,1-4.06,8.54q-4.06,3.22-11.89,3.22a30.08,30.08,0,0,1-12.59-2.87,40.83,40.83,0,0,1-11.19-7.49l-9.51,11.05a47.35,47.35,0,0,0,33,13.43A41,41,0,0,0,303.85,406a31.93,31.93,0,0,0,10.35-5.88A24.8,24.8,0,0,0,322.95,381a25.88,25.88,0,0,0-1.4-8.89,22.56,22.56,0,0,0-3.85-6.79"/><path class="cls-2" d="M392.6,266.32a92.11,92.11,0,0,0,29.9-5.23V223H409.3v28.16c-2.21,1.1-9.95,1.36-16,1.36-19.29,0-35-12.54-35-33.62,0-21.63,16.69-33.34,36.53-33.34,9.79,0,16,1.79,21.08,4L419.61,176c-4.27-2.07-13.23-4.41-24.66-4.41-30.72,0-51.66,18.88-51.66,48.22-0.14,14.05,4.68,26.31,13,34.17,8.81,8.41,20.66,12.4,36.37,12.4"/><path class="cls-2" d="M496.17,408.61a73.19,73.19,0,0,0,26.49-5.25V388.8c-5.8,4.23-20.51,6-25.88,6-17.09,0-29.64-12.58-29.64-33.75,0-21.71,13.4-33.47,31-33.47,8.67,0,14.16,1.8,18.68,4l3.29-13.69c-3.78-2.08-11.72-4.43-21.85-4.43-27.21,0-45.77,18.95-45.77,48.41-0.12,14.11,4.15,26.41,11.48,34.3,7.81,8.44,18.3,12.45,32.22,12.45"/><polygon class="cls-2" points="524.33 171.5 507.9 171.5 507.9 239.38 465.29 171.5 448.73 171.5 448.73 266.8 465.29 266.8 465.29 199.19 507.77 266.8 524.33 266.8 524.33 171.5"/><path class="cls-2" d="M222.84,184.93a44.74,44.74,0,0,0-15.31-9.88,53.42,53.42,0,0,0-19.82-3.55h-36.6v95.87h36.6a53.77,53.77,0,0,0,19.82-3.51,43.52,43.52,0,0,0,25.19-25.07,55.1,55.1,0,0,0,0-38.72,44.21,44.21,0,0,0-9.88-15.15m-4.49,48.92a29.89,29.89,0,0,1-6.7,10.79,28.91,28.91,0,0,1-10.57,6.78,39.27,39.27,0,0,1-14,2.36H166.38v-68.7h20.68a39.31,39.31,0,0,1,14,2.36,29.08,29.08,0,0,1,10.57,6.78,29.94,29.94,0,0,1,6.7,10.8,45.26,45.26,0,0,1,0,28.82"/><path class="cls-2" d="M403.69,367.89A29.24,29.24,0,0,0,416.5,358q4.6-6.43,4.6-16,0-14-8.93-21.34t-25.37-7.37H355v94.94h15V371.75h19.63l19.63,36.52h16.33Zm-3.78-13.64q-4.7,4.21-13,4.21h-17V326.63h17.41q8.61,0.13,12.94,4.3t4.34,11.8Q404.6,350,399.91,354.25Z"/><path class="cls-2" d="M215,331.67a25.48,25.48,0,0,1,7.5-.92,3.57,3.57,0,0,0,1.73-.45,1.59,1.59,0,0,0,.1-2.71,8.49,8.49,0,0,0-1.41-.79l-21.75-10c-2.58-1.18-5.16-2.38-7.76-3.5-1.29-.56-2,0-2.06,1.37,0.06,0.38.1,0.76,0.17,1.13q3,13.75,5.91,27.49c0.33,1.52.66,3,1.08,4.54a1.6,1.6,0,0,0,2.66.9,3.39,3.39,0,0,0,1.35-2.11,38.21,38.21,0,0,1,1.23-4.28,21,21,0,0,1,1-2.3,50.24,50.24,0,0,1,6.87,25c0,18.13-10.4,28.48-23.22,28.48S165.21,383.16,165.21,365c0-16.75,9.68-34.29,20.53-36.86l-3.08-14.32C166,318.67,151.52,343.36,151.52,367c0,26.33,16.53,41.36,36.92,41.36s36.92-15,36.92-41.36A68.3,68.3,0,0,0,215,331.67Z"/><path class="cls-2" d="M277.12,492a12.84,12.84,0,0,1-4.63-.83,10.46,10.46,0,0,1-3.74-2.46,11.52,11.52,0,0,1-2.5-4,15.46,15.46,0,0,1-.91-5.51,13.24,13.24,0,0,1,.79-4.59,11.14,11.14,0,0,1,2.28-3.76,10.73,10.73,0,0,1,3.62-2.53,11.91,11.91,0,0,1,4.81-.94,11.69,11.69,0,0,1,4.16.72,9.27,9.27,0,0,1,3.3,2.12,9.77,9.77,0,0,1,2.15,3.42,12.64,12.64,0,0,1,.76,4.27v2.15a1.11,1.11,0,0,1-.31.87,0.77,0.77,0,0,1-.51.19H271.12a7.88,7.88,0,0,0,2.21,4.41,5.83,5.83,0,0,0,4.3,1.62,7.59,7.59,0,0,0,2.29-.31,11,11,0,0,0,1.69-.69l1-.54,0.19-.1,3,3.77-0.2.15a8.76,8.76,0,0,1-.74.53,12.08,12.08,0,0,1-2.48,1.21,13.51,13.51,0,0,1-2.63.64A18.79,18.79,0,0,1,277.12,492Zm4.82-15.5a5.7,5.7,0,0,0-.29-1.63,4.2,4.2,0,0,0-.9-1.53,4.34,4.34,0,0,0-1.55-1,5.88,5.88,0,0,0-2.21-.38,5.61,5.61,0,0,0-3.89,1.26,5.9,5.9,0,0,0-1.75,3.32h10.59Z"/><path class="cls-2" d="M374.33,492a12.8,12.8,0,0,1-4.63-.83,10.44,10.44,0,0,1-3.74-2.45,11.56,11.56,0,0,1-2.5-4,15.51,15.51,0,0,1-.91-5.51,13.22,13.22,0,0,1,.79-4.59,11.11,11.11,0,0,1,2.27-3.76,10.79,10.79,0,0,1,3.62-2.53,11.94,11.94,0,0,1,4.82-.94,11.67,11.67,0,0,1,4.16.72,9.3,9.3,0,0,1,3.29,2.12,9.7,9.7,0,0,1,2.15,3.42,12.82,12.82,0,0,1,.77,4.52v1.9a1.11,1.11,0,0,1-.31.87,0.76,0.76,0,0,1-.51.19H368.32a7.89,7.89,0,0,0,2.21,4.41,5.83,5.83,0,0,0,4.3,1.62,7.56,7.56,0,0,0,2.29-.31,10.76,10.76,0,0,0,1.69-.69l1-.54,0.19-.1,3,3.77-0.2.15a8.37,8.37,0,0,1-.75.53,11.92,11.92,0,0,1-2.48,1.21,13.33,13.33,0,0,1-2.63.64A18.76,18.76,0,0,1,374.33,492Zm4.81-15.5a5.72,5.72,0,0,0-.29-1.63,4.13,4.13,0,0,0-.91-1.53,4.31,4.31,0,0,0-1.54-1,5.85,5.85,0,0,0-2.21-.38,5.62,5.62,0,0,0-3.89,1.26,5.9,5.9,0,0,0-1.74,3.32h10.59Z"/><path class="cls-2" d="M453.45,492a13.3,13.3,0,0,1-4.86-.86,10.57,10.57,0,0,1-3.75-2.48,11.26,11.26,0,0,1-2.4-3.9,15.75,15.75,0,0,1,0-10.2,11,11,0,0,1,2.4-3.88,10.7,10.7,0,0,1,3.75-2.45,14.12,14.12,0,0,1,9.71,0,10.54,10.54,0,0,1,3.73,2.45,10.88,10.88,0,0,1,2.38,3.88,15.85,15.85,0,0,1,0,10.19,11.07,11.07,0,0,1-2.38,3.9,10.39,10.39,0,0,1-3.73,2.48A13.16,13.16,0,0,1,453.45,492Zm0-19.81a5.25,5.25,0,0,0-4.46,1.9,9.27,9.27,0,0,0-1.45,5.61,9.14,9.14,0,0,0,1.45,5.59,5.27,5.27,0,0,0,4.46,1.88,5.19,5.19,0,0,0,4.4-1.87,9.2,9.2,0,0,0,1.44-5.6,9.31,9.31,0,0,0-1.44-5.62A5.17,5.17,0,0,0,453.45,472.21Z"/><path class="cls-2" d="M353.55,491.9a11.08,11.08,0,0,1-4.43-.86,9.59,9.59,0,0,1-3.42-2.48,11.41,11.41,0,0,1-2.19-3.9,17.21,17.21,0,0,1,0-10.18,11.13,11.13,0,0,1,2.19-3.87,9.68,9.68,0,0,1,3.42-2.46,11.79,11.79,0,0,1,8.86,0,9.68,9.68,0,0,1,2.92,2l0.19,0.18-3.69,3.47-0.17-.2a4.58,4.58,0,0,0-3.66-1.49,4.51,4.51,0,0,0-4,1.89,12.57,12.57,0,0,0,0,11.22,4.53,4.53,0,0,0,4,1.86,4.6,4.6,0,0,0,3.66-1.47l0.27-.31,0.13,0.34,3.45,3.25-0.18.18a9.54,9.54,0,0,1-2.91,2A11,11,0,0,1,353.55,491.9Z"/><path class="cls-2" d="M301.66,504.14a12.54,12.54,0,0,1-9.9-4.73l-0.12-.15,0.12-.16c3.16-4,3.16-4,3.31-4h0.11l0.08,0.09a8.25,8.25,0,0,0,4,2.83,7.32,7.32,0,0,0,2.65.52c3.4,0,5.93-2.55,6.14-6.2V492c0-.43,0-0.85,0-1.26a10.17,10.17,0,0,1-.95.44,14.14,14.14,0,0,1-9.72,0,10.51,10.51,0,0,1-3.76-2.48,11.22,11.22,0,0,1-2.41-3.9,15.78,15.78,0,0,1,0-10.21,11,11,0,0,1,2.41-3.88,10.66,10.66,0,0,1,3.76-2.46,14.12,14.12,0,0,1,9.72,0,10,10,0,0,1,1,.44q0-.22,0-0.44a0.86,0.86,0,0,1,.22-0.64,0.89,0.89,0,0,1,.65-0.23h4.36l0.21,0,0,0.22V493.3a20.77,20.77,0,0,1-.18,2.39c-1,4.53-4.27,7.38-9.35,8.25a13.77,13.77,0,0,1-2.32.2h0Zm0.54-31.94a5.25,5.25,0,0,0-4.46,1.9,9.27,9.27,0,0,0-1.45,5.62,9.15,9.15,0,0,0,1.45,5.59,5.28,5.28,0,0,0,4.47,1.88,5.2,5.2,0,0,0,4.4-1.87,8.28,8.28,0,0,0,1.4-4.53v-2.17a8.38,8.38,0,0,0-1.4-4.54A5.11,5.11,0,0,0,302.21,472.2Z"/><path class="cls-2" d="M327.92,504.14a12.55,12.55,0,0,1-9.9-4.73l-0.12-.15,0.12-.16c3.17-4,3.17-4,3.31-4h0.11l0.07,0.09a8.25,8.25,0,0,0,4,2.83,7.32,7.32,0,0,0,2.65.52c3.4,0,5.93-2.55,6.14-6.2,0-.11,0-0.23,0-0.34,0-.42,0-0.83,0-1.25a9.92,9.92,0,0,1-.95.44,14.14,14.14,0,0,1-9.73,0,10.49,10.49,0,0,1-3.75-2.48,11.13,11.13,0,0,1-2.41-3.9,15.69,15.69,0,0,1,0-10.21,10.93,10.93,0,0,1,2.41-3.88,10.62,10.62,0,0,1,3.75-2.46,14.13,14.13,0,0,1,9.73,0,10,10,0,0,1,1,.44v-0.44a0.86,0.86,0,0,1,.22-0.64,0.88,0.88,0,0,1,.65-0.23h4.36l0.21,0,0,0.22V493.3a21.1,21.1,0,0,1-.18,2.39c-1,4.53-4.27,7.38-9.35,8.25a13.76,13.76,0,0,1-2.32.2h0Zm0.54-31.94a5.25,5.25,0,0,0-4.46,1.9,9.29,9.29,0,0,0-1.45,5.62,9.17,9.17,0,0,0,1.45,5.59,5.28,5.28,0,0,0,4.46,1.88,5.21,5.21,0,0,0,4.41-1.87,8.33,8.33,0,0,0,1.4-4.53v-2.17a8.42,8.42,0,0,0-1.41-4.54A5.11,5.11,0,0,0,328.46,472.2Z"/><path class="cls-2" d="M483.5,492.06V477c-0.06-1.39-.55-4.64-3.93-4.67A5.73,5.73,0,0,0,477,473l-0.3.17a5.41,5.41,0,0,0-2,3.49v15.43h-5.49V467.38h4.57a0.82,0.82,0,0,1,.9.9V470c0.27-.24.52-0.44,0.76-0.63a10.48,10.48,0,0,1,1.73-1.07,9,9,0,0,1,2-.69,10.57,10.57,0,0,1,2.29-.24A8.81,8.81,0,0,1,485,468a7.06,7.06,0,0,1,2.61,1.92,8.48,8.48,0,0,1,1.58,2.94,12.47,12.47,0,0,1,.54,3.73v15.42H483.5Z"/><path class="cls-2" d="M434.48,464.83a3.16,3.16,0,0,1-2.35-.67,3.31,3.31,0,0,1-.62-2.3,3.49,3.49,0,0,1,.64-2.4,4.34,4.34,0,0,1,4.7,0,3.32,3.32,0,0,1,.63,2.31,3.4,3.4,0,0,1-.66,2.39A3.17,3.17,0,0,1,434.48,464.83Z"/><path class="cls-2" d="M432.86,492a1.13,1.13,0,0,1-1.13-1.13V468.63a1.13,1.13,0,0,1,1.12-1.21h3.28a1.13,1.13,0,0,1,1.13,1.13v22.32a1.13,1.13,0,0,1-1.13,1.13h-3.28Z"/><path class="cls-2" d="M386.89,504.14V468.79c0-.93.29-1.41,0.87-1.41H392c0.56,0,.85.44,0.87,1.31a10.89,10.89,0,0,1,1-.45,14,14,0,0,1,9.62,0,10.47,10.47,0,0,1,3.7,2.43,10.78,10.78,0,0,1,2.36,3.84,15.77,15.77,0,0,1,0,10.1,11,11,0,0,1-2.36,3.86,10.3,10.3,0,0,1-3.7,2.46,13.93,13.93,0,0,1-9.62,0,10.53,10.53,0,0,1-1-.45v13.67h-5.94Zm11.76-32a5.19,5.19,0,0,0-4.42,1.88,8.33,8.33,0,0,0-1.41,4.55v2a8.2,8.2,0,0,0,1.41,4.51,6.12,6.12,0,0,0,8.77,0,9.12,9.12,0,0,0,1.42-5.55A9.24,9.24,0,0,0,403,474,5.12,5.12,0,0,0,398.65,472.15Z"/><path class="cls-2" d="M423,492c-4.22,0-6.37-2.35-6.37-7V471.85H412.7v-4.43h3.89v-5.74h5.8v5.74h4.17v4.43h-4.17v12.94a2.7,2.7,0,0,0,.47,1.79,2.28,2.28,0,0,0,1.73.52,8.09,8.09,0,0,0,1.8-.21l0.31-.07v4.61l-0.18.05A13.34,13.34,0,0,1,423,492Z"/><path class="cls-2" d="M501.94,492.33a8.8,8.8,0,0,1-6.1-2.14,6.9,6.9,0,0,1-2.38-5.32,7.11,7.11,0,0,1,3-6.12c1.94-1.4,4.75-2.11,8.34-2.11h3.07v-1.33a4,4,0,0,0-1-2.83,3.93,3.93,0,0,0-3-1,4.56,4.56,0,0,0-2.88.87,2.61,2.61,0,0,0-1.09,2.16v0.25H494v-0.25a6.3,6.3,0,0,1,1.37-3.87,9.06,9.06,0,0,1,3.68-2.79,12.88,12.88,0,0,1,5.15-1,10.42,10.42,0,0,1,6.92,2.19,7.87,7.87,0,0,1,2.67,6.17v10.89a12.15,12.15,0,0,0,.89,5.09l0,0.05v0.69h-5.93l-0.07-.13a7.12,7.12,0,0,1-.56-1.86A8.69,8.69,0,0,1,501.94,492.33Zm3.23-11.78a7.77,7.77,0,0,0-4.38,1,3.12,3.12,0,0,0-1.41,2.76,2.9,2.9,0,0,0,1,2.3,3.74,3.74,0,0,0,2.61.86,5.94,5.94,0,0,0,2.9-.75,5,5,0,0,0,2-1.94v-4.24h-2.67Z"/><path class="cls-3" d="M520.3,492c-1.07,0-1.19-.13-1.19-1.25V456.67c0-1.17.13-1.31,1.21-1.31h2l1.28,0h0a1.1,1.1,0,0,1,.82.25,1.21,1.21,0,0,1,.27.91c0,2,0,4,0,6v28.18c0,1.21-.12,1.34-1.25,1.34H520.3Z"/><path class="cls-3" d="M162.6,492c-1.14,0-1.27-.13-1.27-1.25V456.66c0-1.19.12-1.31,1.29-1.31h2.15l1.37,0h0a1.2,1.2,0,0,1,.89.27,1.18,1.18,0,0,1,.27.89c0,2,0,4,0,5.95v28.19c0,1.23-.11,1.34-1.33,1.34H162.6Z"/><path class="cls-3" d="M177,460.9l-2.71,0H151.81c-1,0-1.05-.16-1.06-1.24s0-2.08,0-3.12,0.08-1.19,1-1.19h25.14c1,0,1,.18,1,1.21v1.14c0,0.7,0,1.41,0,2.11a1.2,1.2,0,0,1-.24.88,0.87,0.87,0,0,1-.66.23h0Z"/><path class="cls-2" d="M172.6,491.9V467.33l0.21,0,0.17,0h4.17a0.89,0.89,0,0,1,.95,1v0.64a9.59,9.59,0,0,1,1.32-.72,10.63,10.63,0,0,1,2.46-.74,10.3,10.3,0,0,1,1.86-.18,8,8,0,0,1,2.18.29c0.08,0,.46.18,0.79,0.33l0.53,0.23,0.17,0.06V474l-0.37-.21a7.79,7.79,0,0,0-3.87-1.15,6.1,6.1,0,0,0-2.8.7,10.65,10.65,0,0,0-2,1.44l-0.25.21V491.9h-5.5Z"/><path class="cls-2" d="M201.35,492.08a13.65,13.65,0,0,1-4.1-.57,8,8,0,0,1-3.09-1.74,7.59,7.59,0,0,1-1.94-2.92,11.26,11.26,0,0,1-.67-4v-14.6a0.88,0.88,0,0,1,.84-0.91H196a0.88,0.88,0,0,1,.84.91,0.65,0.65,0,0,1,0,.11v14a7.5,7.5,0,0,0,.33,2.37,4.29,4.29,0,0,0,.94,1.62,3.89,3.89,0,0,0,1.47,1,5.54,5.54,0,0,0,1.94.32,5.38,5.38,0,0,0,1.91-.32,3.79,3.79,0,0,0,1.4-.94,4.3,4.3,0,0,0,.9-1.56,6.53,6.53,0,0,0,.33-2.13V468.44a1.4,1.4,0,0,0,0-.14,0.93,0.93,0,0,1,.84-1h3.66a0.93,0.93,0,0,1,.84,1v14.27a11.43,11.43,0,0,1-.66,4,8,8,0,0,1-2,3,8.47,8.47,0,0,1-3.18,1.87,13.31,13.31,0,0,1-4.3.64h0Z"/><path class="cls-3" d="M217.06,492c-1.06,0-1.18-.13-1.18-1.25V456.66c0-1.13.08-1.31,1.2-1.31h2l1.26,0h0a1.09,1.09,0,0,1,.82.25,1.21,1.21,0,0,1,.27.91c0,2,0,4,0,6v28.15c0,1.19-.07,1.34-1.23,1.34h-3.1Z"/><path class="cls-2" d="M228.14,504.09l-2.38-.39v-4.59l1.82,0.13a8.27,8.27,0,0,0,4.41-1,7.32,7.32,0,0,0,2.59-3.69l1.17-2.86-11.39-24.41H230L238.74,486l8.73-18.71h5.64l-6.16,13.22-0.4.86-4.87,10.43-2.21,4.84c-2.13,5-5.57,7.55-10.22,7.55Z"/></svg>