<svg id="Layer_1" data-name="Layer 1" xmlns="http://www.w3.org/2000/svg" viewBox="0 0 439.26 70"><defs><style>.cls-1,.cls-2{fill:#333;}.cls-2{fill-rule:evenodd;}</style></defs><title>eggceptional-v2</title><path class="cls-1" d="M439.26,32.7a18.26,18.26,0,0,0-1.09-6.44,13.73,13.73,0,0,0-3.05-4.84,13,13,0,0,0-4.66-3,16.54,16.54,0,0,0-5.92-1,16.93,16.93,0,0,0-6.84,1.33,15.23,15.23,0,0,0-5.14,3.6,15.75,15.75,0,0,0-3.23,5.34,18.82,18.82,0,0,0-1.13,6.55,22.09,22.09,0,0,0,1.29,7.87,16.33,16.33,0,0,0,3.55,5.7,14.73,14.73,0,0,0,5.3,3.48,18.17,18.17,0,0,0,6.59,1.18,26.92,26.92,0,0,0,3.7-.27,19.32,19.32,0,0,0,3.75-.91,17.17,17.17,0,0,0,3.53-1.72c0.36-.23.71-0.49,1.05-0.76l-3.89-5-1.45.78a16,16,0,0,1-2.52,1,11.22,11.22,0,0,1-3.43.46,8.77,8.77,0,0,1-6.49-2.45,11.9,11.9,0,0,1-3.37-7h22.54s0.91,0.15.91-1.17V32.7h0Zm-20.41-7.52a8.47,8.47,0,0,1,5.89-1.92,8.85,8.85,0,0,1,3.35.58,6.63,6.63,0,0,1,2.37,1.59,6.41,6.41,0,0,1,1.39,2.35,8.82,8.82,0,0,1,.45,2.85H416.12A9.09,9.09,0,0,1,418.84,25.19Z"/><path class="cls-1" d="M39.24,7.34a24.48,24.48,0,0,0-8.38-5.4A29.19,29.19,0,0,0,20,0H0V52.45H20a29.43,29.43,0,0,0,10.84-1.92,24.16,24.16,0,0,0,8.38-5.4,24.34,24.34,0,0,0,5.41-8.31,28.39,28.39,0,0,0,1.92-10.59,28.41,28.41,0,0,0-1.92-10.59A24.17,24.17,0,0,0,39.24,7.34ZM36.78,34.11A16.37,16.37,0,0,1,33.12,40a15.87,15.87,0,0,1-5.78,3.71A21.48,21.48,0,0,1,19.67,45H8.35V7.43H19.67a21.52,21.52,0,0,1,7.67,1.29,15.93,15.93,0,0,1,5.78,3.71,16.38,16.38,0,0,1,3.66,5.91,22.65,22.65,0,0,1,1.29,7.88A22.65,22.65,0,0,1,36.78,34.11Z"/><path class="cls-1" d="M238.5,22.1a14.93,14.93,0,0,0-5.29-3.48,20.15,20.15,0,0,0-13.84,0,15.06,15.06,0,0,0-5.32,3.48,15.45,15.45,0,0,0-3.41,5.5,20.66,20.66,0,0,0-1.21,7.26,20.76,20.76,0,0,0,1.21,7.29,15.8,15.8,0,0,0,3.41,5.53,14.83,14.83,0,0,0,5.32,3.51,20.12,20.12,0,0,0,13.84,0,14.7,14.7,0,0,0,5.29-3.51,15.77,15.77,0,0,0,3.38-5.53,21.05,21.05,0,0,0,1.19-7.29,21,21,0,0,0-1.19-7.26A15.42,15.42,0,0,0,238.5,22.1ZM233,43.28q-2.17,2.85-6.67,2.85t-6.76-2.87q-2.18-2.87-2.18-8.34t2.18-8.37q2.18-2.9,6.76-2.9T233,26.54q2.17,2.88,2.16,8.39T233,43.28Z"/><path class="cls-1" d="M122.71,4.82a4.28,4.28,0,0,0-3.17.9A4.8,4.8,0,0,0,118.7,9a4.53,4.53,0,0,0,.81,3.1q0.81,0.86,3.14.86a4.32,4.32,0,0,0,3.15-.89,4.68,4.68,0,0,0,.85-3.22,4.54,4.54,0,0,0-.82-3.11A4.27,4.27,0,0,0,122.71,4.82Z"/><path class="cls-1" d="M306.68,22.1a14.92,14.92,0,0,0-5.29-3.48,20.15,20.15,0,0,0-13.84,0,15,15,0,0,0-5.32,3.48,15.5,15.5,0,0,0-3.41,5.5,20.72,20.72,0,0,0-1.21,7.26,20.82,20.82,0,0,0,1.21,7.29,15.84,15.84,0,0,0,3.41,5.53,14.81,14.81,0,0,0,5.32,3.51,20.12,20.12,0,0,0,13.84,0,14.69,14.69,0,0,0,5.29-3.51,15.74,15.74,0,0,0,3.38-5.53,21,21,0,0,0,1.19-7.29,20.93,20.93,0,0,0-1.19-7.26A15.4,15.4,0,0,0,306.68,22.1Zm-5.52,21.18q-2.17,2.85-6.67,2.85t-6.76-2.87q-2.18-2.87-2.18-8.34t2.18-8.37q2.19-2.9,6.76-2.9t6.67,2.88q2.17,2.88,2.17,8.39T301.17,43.28Z"/><path class="cls-1" d="M90.16,44.26V44.07A1.37,1.37,0,0,0,90.16,44.26Z"/><path class="cls-1" d="M83.23,32.56a18.28,18.28,0,0,0-1.09-6.44,13.72,13.72,0,0,0-3-4.84,13,13,0,0,0-4.66-3,16.55,16.55,0,0,0-5.92-1,16.92,16.92,0,0,0-6.85,1.33,15.17,15.17,0,0,0-5.13,3.59,15.75,15.75,0,0,0-3.23,5.34,18.82,18.82,0,0,0-1.13,6.55,22.06,22.06,0,0,0,1.29,7.87A16.35,16.35,0,0,0,57,47.62a14.74,14.74,0,0,0,5.3,3.48,18.17,18.17,0,0,0,6.6,1.18A26.85,26.85,0,0,0,72.61,52a19.34,19.34,0,0,0,3.75-.91,17.15,17.15,0,0,0,3.53-1.72c0.36-.23.71-0.49,1.05-0.76l-3.89-5-1.45.78a16,16,0,0,1-2.52,1,11.2,11.2,0,0,1-3.43.46,8.78,8.78,0,0,1-6.5-2.45,11.91,11.91,0,0,1-3.37-7H82.32s0.91,0.15.91-1.17V32.56h0ZM62.81,25a8.47,8.47,0,0,1,5.89-1.92,8.86,8.86,0,0,1,3.35.58,6.63,6.63,0,0,1,2.37,1.59,6.44,6.44,0,0,1,1.4,2.35,8.83,8.83,0,0,1,.45,2.85H60.09A9.09,9.09,0,0,1,62.81,25Z"/><path class="cls-1" d="M399.52,43.87a8,8,0,0,1-11.75-.6q-2-2.87-2-8.34t2-8.37A8,8,0,0,1,399.52,26l4.81-4.53a13.58,13.58,0,0,0-4.14-2.8,16.74,16.74,0,0,0-12.57,0,13.63,13.63,0,0,0-4.83,3.48,15.76,15.76,0,0,0-3.1,5.5,22.56,22.56,0,0,0-1.1,7.26,22.67,22.67,0,0,0,1.1,7.29,16.12,16.12,0,0,0,3.1,5.53,13.44,13.44,0,0,0,4.83,3.51,16.72,16.72,0,0,0,12.57,0,13.33,13.33,0,0,0,4.13-2.81l-4.8-4.52h0Z"/><path class="cls-1" d="M165.67,17.34h-6.15a0.79,0.79,0,0,0-.91.89q0,0.63,0,1.25a16.08,16.08,0,0,0-1.89-.91,20.14,20.14,0,0,0-13.85,0,15.07,15.07,0,0,0-5.33,3.48,15.53,15.53,0,0,0-3.42,5.51,20.71,20.71,0,0,0-1.21,7.27,20.81,20.81,0,0,0,1.21,7.3,15.85,15.85,0,0,0,3.42,5.54,14.86,14.86,0,0,0,5.33,3.52,20.14,20.14,0,0,0,13.85,0,15.75,15.75,0,0,0,1.87-.9V50.4c0,0.77,0,1.54,0,2.3h0c0,0.17,0,.34,0,0.5-0.4,7.1-6.64,11.14-13.25,8.57a12.4,12.4,0,0,1-5.88-4.21s-4.52,5.69-4.52,5.69a18,18,0,0,0,17.41,6.44c6.85-1.18,11.75-5,13.28-11.71a30,30,0,0,0,.25-3.39V17.37ZM158.6,36.48a12.33,12.33,0,0,1-2.11,6.78q-2.17,2.85-6.68,2.85T143,43.24q-2.19-2.87-2.19-8.35T143,26.52q2.19-2.9,6.77-2.9t6.68,2.89a12.49,12.49,0,0,1,2.11,6.81v3.17Z"/><path class="cls-1" d="M202.16,25.06a11.93,11.93,0,0,0-2.23-4.15,9.93,9.93,0,0,0-3.66-2.7,12.4,12.4,0,0,0-5-1,14.57,14.57,0,0,0-3.24.34,12.61,12.61,0,0,0-2.78,1,15.26,15.26,0,0,0-2.46,1.52,18.69,18.69,0,0,0-1.68,1.45V19.05c0-.28,0-0.55,0-0.83a0.82,0.82,0,0,0-.94-0.94h-6.28V52.4h7.24V30.3A8.25,8.25,0,0,1,184.22,25l0.45-.26a8.65,8.65,0,0,1,3.86-1c5.27,0.06,6,5.15,6.06,7.15V52.4h8.33v-22A17.71,17.71,0,0,0,202.16,25.06Z"/><path class="cls-1" d="M372.3,17.8a12.51,12.51,0,0,0-5.68-.16,15,15,0,0,0-3.48,1.05,13.62,13.62,0,0,0-2.41,1.4V19.48c0-.33,0-0.66,0-1a0.94,0.94,0,0,0-1-1.13h-6a1.24,1.24,0,0,0-.19,0V52.28h7.24q0-6.46,0-12.92c0-.07,0-0.13,0-0.19s0-.12,0-0.19q0-5.49,0-11l0,0a18.5,18.5,0,0,1,3.45-2.5c3.79-1.94,7.28-.87,10,0.67V18.61C374,18.54,372.5,17.86,372.3,17.8Z"/><path class="cls-2" d="M90,47.05c0-.93,0-1.86,0-2.79,0-.65.24-0.8,0.81-0.48a20,20,0,0,0,5,2.08,10.48,10.48,0,0,0,5.22,0,3.44,3.44,0,0,0,2.76-2.34,3.12,3.12,0,0,0-1.37-3.91,13,13,0,0,0-3.28-1.59,35,35,0,0,1-5.56-2.48A8.79,8.79,0,0,1,89,29.1,9.37,9.37,0,0,1,95,18.48a16.15,16.15,0,0,1,5.51-1.18,19.29,19.29,0,0,1,7.74,1.15,17.11,17.11,0,0,1,2.24,1.16,0.56,0.56,0,0,1,.3.54c0,1.74,0,3.49,0,5.23,0,0.61-.25.75-0.81,0.46-1-.51-1.92-1-2.92-1.45a13.13,13.13,0,0,0-6-1.09,5.54,5.54,0,0,0-2.45.68A3.09,3.09,0,0,0,98,29a11.4,11.4,0,0,0,3.87,2,42.76,42.76,0,0,1,5.21,2.2,9.13,9.13,0,0,1,4.76,5.15,10,10,0,0,1-4.56,12.14,16.11,16.11,0,0,1-6,1.75,20.76,20.76,0,0,1-9-1,12.8,12.8,0,0,1-1.84-.79A0.65,0.65,0,0,1,90,49.84C90.06,48.91,90,48,90,47.05Z"/><path class="cls-1" d="M126.34,19s0-.08,0-0.12a1.1,1.1,0,0,0,0-.15,1.28,1.28,0,0,0-1.28-1.28H120.3A1.28,1.28,0,0,0,119,18.69a1.16,1.16,0,0,0,0,.16s0,0.07,0,.12v32s0,0,0,.07a0.79,0.79,0,0,0,0,.09,1.28,1.28,0,0,0,1.28,1.28h4.76a1.28,1.28,0,0,0,1.28-1.28s0-.06,0-0.09,0,0,0-.07V19Z"/><path class="cls-2" d="M249.77,47c0-.93,0-1.87,0-2.79,0-.65.24-0.8,0.81-0.48a20,20,0,0,0,5,2.08,10.5,10.5,0,0,0,5.23,0,3.45,3.45,0,0,0,2.77-2.34,3.13,3.13,0,0,0-1.37-3.92,13,13,0,0,0-3.29-1.6,35.26,35.26,0,0,1-5.58-2.48,8.81,8.81,0,0,1-4.6-6.5,9.39,9.39,0,0,1,5.94-10.65,16.2,16.2,0,0,1,5.52-1.18A19.33,19.33,0,0,1,268,18.38a17,17,0,0,1,2.24,1.17,0.56,0.56,0,0,1,.3.54c0,1.75,0,3.5,0,5.24,0,0.61-.25.75-0.81,0.46-1-.5-1.92-1-2.93-1.45a13.16,13.16,0,0,0-6-1.09,5.54,5.54,0,0,0-2.46.68,3.1,3.1,0,0,0-.53,5,11.44,11.44,0,0,0,3.88,2,42.64,42.64,0,0,1,5.23,2.2,9.15,9.15,0,0,1,4.77,5.17,10,10,0,0,1-4.58,12.17,16.15,16.15,0,0,1-6,1.75,20.82,20.82,0,0,1-9-1,12.91,12.91,0,0,1-1.85-.79,0.65,0.65,0,0,1-.39-0.66C249.78,48.9,249.77,48,249.77,47Z"/><path class="cls-1" d="M346.29,18.3a1,1,0,0,0-.86-1.08h-5.3a1,1,0,0,0-.86,1.08,1.21,1.21,0,0,0,0,.14s0,0,0,.07V39.1a9.77,9.77,0,0,1-.49,3.21,6.55,6.55,0,0,1-1.39,2.38,5.85,5.85,0,0,1-2.16,1.45,8.13,8.13,0,0,1-2.89.49,8.33,8.33,0,0,1-2.94-.49,6,6,0,0,1-2.26-1.47,6.51,6.51,0,0,1-1.45-2.48,11.19,11.19,0,0,1-.5-3.55V18.34a0.59,0.59,0,0,0,0-.12s0,0,0,0a0.91,0.91,0,0,0-.85-1h-5.26a0.91,0.91,0,0,0-.85,1s0,0.07,0,.1a0.59,0.59,0,0,0,0,.06v21a15.92,15.92,0,0,0,.94,5.72,10.59,10.59,0,0,0,2.71,4.08,11.2,11.2,0,0,0,4.33,2.44,19.28,19.28,0,0,0,5.79.81h0.07a18.94,18.94,0,0,0,6.11-.91,11.87,11.87,0,0,0,4.46-2.63,11.11,11.11,0,0,0,2.74-4.22,16.17,16.17,0,0,0,.93-5.66V18.3Z"/></svg>